<svg xmlns="http://www.w3.org/2000/svg">
    <defs>
        <symbol id="check-circle" viewBox="0 0 24 24"><path d="M22 11.08V12a10 10 0 1 1-5.93-9.14"></path><polyline points="22 4 12 14.01 9 11.01"></polyline></symbol>
        <symbol id="chevron-right" viewBox="0 0 24 24"><polyline points="9 18 15 12 9 6"></polyline></symbol>
        <symbol id="disc" viewBox="0 0 24 24"><circle cx="12" cy="12" r="10"></circle><circle cx="12" cy="12" r="3"></circle></symbol>
        <symbol id="frown" viewBox="0 0 24 24"><circle cx="12" cy="12" r="10"></circle><path d="M16 16s-1.5-2-4-2-4 2-4 2"></path><line x1="9" y1="9" x2="9.01" y2="9"></line><line x1="15" y1="9" x2="15.01" y2="9"></line></symbol>
        <symbol id="hard-drive" viewBox="0 0 24 24"><line x1="22" y1="12" x2="2" y2="12"></line><path d="M5.45 5.11L2 12v6a2 2 0 0 0 2 2h16a2 2 0 0 0 2-2v-6l-3.45-6.89A2 2 0 0 0 16.76 4H7.24a2 2 0 0 0-1.79 1.11z"></path><line x1="6" y1="16" x2="6.01" y2="16"></line><line x1="10" y1="16" x2="10.01" y2="16"></line></symbol>
        <symbol id="laptop" viewBox="0 0 24 24"><path d="M6 16.4h12"></path><path d="M17 7H7v7h10V7z"></path></symbol>
        <symbol id="lock" viewBox="0 0 24 24"><rect x="3" y="11" width="18" height="11" rx="2" ry="2"></rect><path d="M7 11V7a5 5 0 0 1 10 0v4"></path></symbol>
        <symbol id="music" viewBox="0 0 24 24"><path d="M9 18V5l12-2v13"></path><circle cx="6" cy="18" r="3"></circle><circle cx="18" cy="16" r="3"></circle></symbol>
        <symbol id="network" viewBox="0 0 24 24"><path d=" M 9 2 L 9 8 L 15 8 L 15 2 L 9 2 Z " /><path d=" M 12 8 L 12 12 M 12 12 L 5 12 L 5 16 M 12 12 L 19 12 L 19 16" /><path d=" M 8 16 L 2 16 L 2 22 L 8 22 L 8 16 Z " /><path d=" M 16 16 L 16 22 L 22 22 L 22 16 L 16 16 Z " /></symbol>
        <symbol id="radio" viewBox="0 0 24 24"><circle cx="12" cy="12" r="2"></circle><path d="M16.24 7.76a6 6 0 0 1 0 8.49m-8.48-.01a6 6 0 0 1 0-8.49m11.31-2.82a10 10 0 0 1 0 14.14m-14.14 0a10 10 0 0 1 0-14.14"></path></symbol>
        <symbol id="settings" viewBox="0 0 24 24"><circle cx="12" cy="12" r="3"></circle><path d="M19.4 15a1.65 1.65 0 0 0 .33 1.82l.06.06a2 2 0 0 1 0 2.83 2 2 0 0 1-2.83 0l-.06-.06a1.65 1.65 0 0 0-1.82-.33 1.65 1.65 0 0 0-1 1.51V21a2 2 0 0 1-2 2 2 2 0 0 1-2-2v-.09A1.65 1.65 0 0 0 9 19.4a1.65 1.65 0 0 0-1.82.33l-.06.06a2 2 0 0 1-2.83 0 2 2 0 0 1 0-2.83l.06-.06a1.65 1.65 0 0 0 .33-1.82 1.65 1.65 0 0 0-1.51-1H3a2 2 0 0 1-2-2 2 2 0 0 1 2-2h.09A1.65 1.65 0 0 0 4.6 9a1.65 1.65 0 0 0-.33-1.82l-.06-.06a2 2 0 0 1 0-2.83 2 2 0 0 1 2.83 0l.06.06a1.65 1.65 0 0 0 1.82.33H9a1.65 1.65 0 0 0 1-1.51V3a2 2 0 0 1 2-2 2 2 0 0 1 2 2v.09a1.65 1.65 0 0 0 1 1.51 1.65 1.65 0 0 0 1.82-.33l.06-.06a2 2 0 0 1 2.83 0 2 2 0 0 1 0 2.83l-.06.06a1.65 1.65 0 0 0-.33 1.82V9a1.65 1.65 0 0 0 1.51 1H21a2 2 0 0 1 2 2 2 2 0 0 1-2 2h-.09a1.65 1.65 0 0 0-1.51 1z"></path></symbol>
        <symbol id="unlock" viewBox="0 0 24 24"><rect x="3" y="11" width="18" height="11" rx="2" ry="2"></rect><path d="M7 11V7a5 5 0 0 1 9.9-1"></path></symbol>
        <symbol id="upload" viewBox="0 0 24 24"><path d="M21 15v4a2 2 0 0 1-2 2H5a2 2 0 0 1-2-2v-4"></path><polyline points="17 8 12 3 7 8"></polyline><line x1="12" y1="3" x2="12" y2="15"></line></symbol>
        <symbol id="volume" viewBox="0 0 24 24"><polygon points="11 5 6 9 2 9 2 15 6 15 11 19 11 5"></polygon><path d="M19.07 4.93a10 10 0 0 1 0 14.14M15.54 8.46a5 5 0 0 1 0 7.07"></path></symbol>

        <symbol id="wifi-0" viewBox="0 0 24 24"><path d="M1.42 9a16 16 0 0 1 21.16 0" stroke-opacity="0.4"></path><path d="M5 12.55a11 11 0 0 1 14.08 0" stroke-opacity="0.4"></path><path d="M8.53 16.11a6 6 0 0 1 6.95 0" stroke-opacity="0.4"></path><line x1="12" y1="20" x2="12.01" y2="20" stroke-opacity="0.4"></line></symbol>
        <symbol id="wifi-1" viewBox="0 0 24 24"><path d="M1.42 9a16 16 0 0 1 21.16 0" stroke-opacity="0.4"></path><path d="M5 12.55a11 11 0 0 1 14.08 0" stroke-opacity="0.4"></path><path d="M8.53 16.11a6 6 0 0 1 6.95 0" stroke-opacity="0.4"></path><line x1="12" y1="20" x2="12.01" y2="20"></line></symbol>
        <symbol id="wifi-2" viewBox="0 0 24 24"><path d="M1.42 9a16 16 0 0 1 21.16 0" stroke-opacity="0.4"></path><path d="M5 12.55a11 11 0 0 1 14.08 0" stroke-opacity="0.4"></path><path d="M8.53 16.11a6 6 0 0 1 6.95 0"></path><line x1="12" y1="20" x2="12.01" y2="20"></line></symbol>
        <symbol id="wifi-3" viewBox="0 0 24 24"><path d="M1.42 9a16 16 0 0 1 21.16 0" stroke-opacity="0.4"></path><path d="M5 12.55a11 11 0 0 1 14.08 0"></path><path d="M8.53 16.11a6 6 0 0 1 6.95 0"></path><line x1="12" y1="20" x2="12.01" y2="20"></line></symbol>
        <symbol id="wifi-4" viewBox="0 0 24 24"><path d="M1.42 9a16 16 0 0 1 21.16 0"></path><path d="M5 12.55a11 11 0 0 1 14.08 0"></path><path d="M8.53 16.11a6 6 0 0 1 6.95 0"></path><line x1="12" y1="20" x2="12.01" y2="20"></line></symbol>

        <symbol id="wifi-0-secure" viewBox="0 0 24 24"><path d="M1.42 9a16 16 0 0 1 21.16 0" stroke-opacity="0.4"></path><path d="M5 12.55a11 11 0 0 1 14.08 0" stroke-opacity="0.4"></path><path d="M8.53 16.11a6 6 0 0 1 6.95 0" stroke-opacity="0.4"></path><line x1="12" y1="20" x2="12.01" y2="20" stroke-opacity="0.4"></line></symbol>
        <symbol id="wifi-1-secure" viewBox="0 0 24 24"><path d="M1.42 9a16 16 0 0 1 21.16 0" stroke-opacity="0.4"></path><path d="M5 12.55a11 11 0 0 1 14.08 0" stroke-opacity="0.4"></path><path d="M8.53 16.11a6 6 0 0 1 6.95 0" stroke-opacity="0.4"></path><line x1="12" y1="20" x2="12.01" y2="20"></line></symbol>
        <symbol id="wifi-2-secure" viewBox="0 0 24 24"><path d="M1.42 9a16 16 0 0 1 21.16 0" stroke-opacity="0.4"></path><path d="M5 12.55a11 11 0 0 1 14.08 0" stroke-opacity="0.4"></path><path d="M8.53 16.11a6 6 0 0 1 6.95 0"></path><line x1="12" y1="20" x2="12.01" y2="20"></line></symbol>
        <symbol id="wifi-3-secure" viewBox="0 0 24 24"><path d="M1.42 9a16 16 0 0 1 21.16 0" stroke-opacity="0.4"></path><path d="M5 12.55a11 11 0 0 1 14.08 0"></path><path d="M8.53 16.11a6 6 0 0 1 6.95 0"></path><line x1="12" y1="20" x2="12.01" y2="20"></line></symbol>
        <symbol id="wifi-4-secure" viewBox="0 0 24 24"><path d="M1.42 9a16 16 0 0 1 21.16 0"></path><path d="M5 12.55a11 11 0 0 1 14.08 0"></path><path d="M8.53 16.11a6 6 0 0 1 6.95 0"></path><line x1="12" y1="20" x2="12.01" y2="20"></line></symbol>
        <!--<symbol id="" viewBox="0 0 24 24"></symbol>-->
    </defs>
</svg>