<?xml version="1.0" encoding="UTF-8" standalone="no"?><!-- Generator: Gravit.io --><svg xmlns="http://www.w3.org/2000/svg" xmlns:xlink="http://www.w3.org/1999/xlink" style="isolation:isolate" viewBox="0 0 24 24" width="24pt" height="24pt"><defs><clipPath id="_clipPath_9kQ7I2QtuzUdQWg4ymn8F6IcxNgjtyz4"><rect width="24" height="24"/></clipPath></defs><g clip-path="url(#_clipPath_9kQ7I2QtuzUdQWg4ymn8F6IcxNgjtyz4)"><path d=" M 2.08 9.75 C 1.88 9.93 1.62 10.01 1.36 10 C 1.09 9.98 0.85 9.86 0.67 9.66 C 0.49 9.46 0.41 9.2 0.42 8.94 C 0.44 8.67 0.56 8.43 0.76 8.25 C 3.86 5.51 7.86 4 12 4 C 16.14 4 20.14 5.51 23.24 8.25 C 23.44 8.43 23.56 8.67 23.58 8.94 C 23.59 9.2 23.51 9.46 23.33 9.66 C 23.15 9.86 22.91 9.98 22.64 10 C 22.38 10.01 22.12 9.93 21.92 9.75 C 19.18 7.34 15.65 6 12 6 C 8.35 6 4.82 7.34 2.08 9.75 Z " fill="rgb(255,255,255)" fill-opacity="0.5"/><path d=" M 12.01 19 C 12.28 19 12.53 19.11 12.72 19.29 C 12.9 19.48 13.01 19.73 13.01 20 C 13.01 20.27 12.9 20.52 12.72 20.71 C 12.53 20.89 12.28 21 12.01 21 L 12 21 C 11.73 21 11.48 20.89 11.29 20.71 C 11.11 20.52 11 20.27 11 20 C 11 19.73 11.11 19.48 11.29 19.29 C 11.48 19.11 11.73 19 12 19 L 12.01 19 Z " fill="rgb(255,255,255)"/><path d=" M 13.411 14.148 C 12.951 14.048 12.478 14 12 14 C 10.55 14 9.14 14.45 7.95 15.29 C 7.73 15.45 7.59 15.68 7.54 15.94 C 7.5 16.2 7.56 16.47 7.71 16.69 C 7.87 16.91 8.1 17.05 8.36 17.1 C 8.62 17.14 8.89 17.08 9.11 16.93 C 9.96 16.32 10.97 16 12 16 C 12.367 16 12.731 16.04 13.085 16.118 C 13.082 16.079 13.081 16.04 13.081 16 C 13.081 15.349 13.195 14.724 13.411 14.148 Z " fill-rule="evenodd" fill="rgb(255,255,255)"/><path d=" M 17.872 10.549 C 16.109 9.533 14.101 9 12.04 9 C 9.23 9 6.52 9.99 4.36 11.78 C 4.16 11.95 4.03 12.2 4 12.46 C 3.98 12.72 4.06 12.99 4.23 13.19 C 4.4 13.39 4.65 13.52 4.91 13.55 C 5.17 13.57 5.44 13.49 5.64 13.32 C 7.44 11.82 9.7 11 12.04 11 C 13.171 11 14.284 11.192 15.327 11.582 C 16.053 11.032 16.924 10.668 17.872 10.549 Z " fill-rule="evenodd" fill="rgb(255,255,255)"/><path d=" M 14.29 16 C 14.29 13.632 16.213 11.71 18.581 11.71 C 20.949 11.71 22.871 13.632 22.871 16 C 22.871 18.368 20.949 20.29 18.581 20.29 C 16.213 20.29 14.29 18.368 14.29 16 Z  M 19.36 15.47 L 19.36 14.84 C 19.36 14.64 19.28 14.44 19.13 14.29 C 18.99 14.15 18.79 14.07 18.58 14.07 C 18.37 14.07 18.18 14.15 18.03 14.29 C 17.88 14.44 17.8 14.64 17.8 14.84 L 17.8 15.47 L 19.36 15.47 L 19.36 15.47 Z  M 17.05 15.47 L 17.05 14.84 C 17.05 14.44 17.21 14.05 17.5 13.76 C 17.78 13.47 18.17 13.31 18.58 13.31 C 18.99 13.31 19.38 13.47 19.66 13.76 C 19.95 14.05 20.11 14.44 20.11 14.84 L 20.11 15.47 L 20.2 15.47 C 20.4 15.47 20.6 15.55 20.74 15.69 C 20.88 15.83 20.96 16.03 20.96 16.23 L 20.96 17.85 C 20.96 18.05 20.88 18.25 20.74 18.39 C 20.6 18.53 20.4 18.61 20.2 18.61 L 16.96 18.61 C 16.76 18.61 16.57 18.53 16.42 18.39 C 16.28 18.25 16.2 18.05 16.2 17.85 L 16.2 16.23 C 16.2 16.03 16.28 15.83 16.42 15.69 C 16.57 15.55 16.76 15.47 16.96 15.47 L 16.96 15.47 L 17.05 15.47 L 17.05 15.47 Z " fill-rule="evenodd" fill="rgb(255,255,255)"/></g></svg>