<?xml version="1.0" encoding="UTF-8" standalone="no"?><!-- Generator: Gravit.io --><svg xmlns="http://www.w3.org/2000/svg" xmlns:xlink="http://www.w3.org/1999/xlink" style="isolation:isolate" viewBox="0 0 54 11.482" width="54pt" height="11.482pt"><defs><clipPath id="_clipPath_SlKgfTfueSRFy2ANzllnDQRB409MBTiT"><rect width="54" height="11.482"/></clipPath></defs><g clip-path="url(#_clipPath_SlKgfTfueSRFy2ANzllnDQRB409MBTiT)"><path d=" M 0.443 0 L 0.443 0 L 10.875 0 L 10.875 0 Q 11.056 0 11.187 0.131 L 11.187 0.131 L 11.187 0.131 Q 11.318 0.262 11.318 0.443 L 11.318 0.443 L 11.318 2.936 L 11.318 2.936 Q 11.318 3.117 11.187 3.248 L 11.187 3.248 L 11.187 3.248 Q 11.056 3.379 10.875 3.379 L 10.875 3.379 L 4.429 3.379 L 4.429 4.429 L 9.809 4.429 L 9.809 4.429 Q 9.99 4.429 10.121 4.56 L 10.121 4.56 L 10.121 4.56 Q 10.252 4.691 10.252 4.872 L 10.252 4.872 L 10.252 7.349 L 10.252 7.349 Q 10.252 7.529 10.121 7.66 L 10.121 7.66 L 10.121 7.66 Q 9.99 7.792 9.809 7.792 L 9.809 7.792 L 4.429 7.792 L 4.429 11.039 L 4.429 11.039 Q 4.429 11.22 4.298 11.351 L 4.298 11.351 L 4.298 11.351 Q 4.166 11.482 3.986 11.482 L 3.986 11.482 L 0.443 11.482 L 0.443 11.482 Q 0.262 11.482 0.131 11.351 L 0.131 11.351 L 0.131 11.351 Q 0 11.22 0 11.039 L 0 11.039 L 0 0.443 L 0 0.443 Q 0 0.262 0.131 0.131 L 0.131 0.131 L 0.131 0.131 Q 0.262 0 0.443 0 Z  M 16.174 11.482 L 16.174 11.482 L 13.074 11.482 L 13.074 11.482 Q 12.926 11.482 12.819 11.376 L 12.819 11.376 L 12.819 11.376 Q 12.713 11.269 12.713 11.171 L 12.713 11.171 L 12.713 11.171 Q 12.713 11.072 12.729 11.023 L 12.729 11.023 L 16.305 0.541 L 16.305 0.541 Q 16.453 0 17.043 0 L 17.043 0 L 21.603 0 L 21.603 0 Q 22.194 0 22.341 0.541 L 22.341 0.541 L 25.917 11.023 L 25.917 11.023 Q 25.934 11.072 25.934 11.171 L 25.934 11.171 L 25.934 11.171 Q 25.934 11.269 25.827 11.376 L 25.827 11.376 L 25.827 11.376 Q 25.721 11.482 25.573 11.482 L 25.573 11.482 L 22.473 11.482 L 22.473 11.482 Q 21.948 11.482 21.735 10.925 L 21.735 10.925 Q 19.622 4.177 19.323 3.166 Q 19.024 4.203 16.912 10.925 L 16.912 10.925 Q 16.699 11.482 16.174 11.482 Z  M 32.971 0.443 L 32.971 8.12 L 38.564 8.12 L 38.564 8.12 Q 38.745 8.12 38.876 8.251 L 38.876 8.251 L 38.876 8.251 Q 39.007 8.382 39.007 8.563 L 39.007 8.563 L 39.007 11.039 L 39.007 11.039 Q 39.007 11.22 38.876 11.351 L 38.876 11.351 L 38.876 11.351 Q 38.745 11.482 38.564 11.482 L 38.564 11.482 L 28.985 11.482 L 28.985 11.482 Q 28.804 11.482 28.673 11.351 L 28.673 11.351 L 28.673 11.351 Q 28.542 11.22 28.542 11.039 L 28.542 11.039 L 28.542 0.443 L 28.542 0.443 Q 28.542 0.262 28.673 0.131 L 28.673 0.131 L 28.673 0.131 Q 28.804 0 28.985 0 L 28.985 0 L 32.528 0 L 32.528 0 Q 32.708 0 32.84 0.131 L 32.84 0.131 L 32.84 0.131 Q 32.971 0.262 32.971 0.443 L 32.971 0.443 L 32.971 0.443 Z  M 49.505 5.331 L 53.934 10.908 L 53.934 10.908 Q 54 11.007 54 11.138 L 54 11.138 L 54 11.138 Q 54 11.269 53.893 11.376 L 53.893 11.376 L 53.893 11.376 Q 53.787 11.482 53.639 11.482 L 53.639 11.482 L 49.407 11.482 L 49.407 11.482 Q 49.03 11.482 48.817 11.22 L 48.817 11.22 L 45.962 7.693 L 45.962 11.039 L 45.962 11.039 Q 45.962 11.22 45.831 11.351 L 45.831 11.351 L 45.831 11.351 Q 45.7 11.482 45.519 11.482 L 45.519 11.482 L 42.14 11.482 L 42.14 11.482 Q 41.96 11.482 41.829 11.351 L 41.829 11.351 L 41.829 11.351 Q 41.697 11.22 41.697 11.039 L 41.697 11.039 L 41.697 0.443 L 41.697 0.443 Q 41.697 0.262 41.829 0.131 L 41.829 0.131 L 41.829 0.131 Q 41.96 0 42.14 0 L 42.14 0 L 45.519 0 L 45.519 0 Q 45.7 0 45.831 0.131 L 45.831 0.131 L 45.831 0.131 Q 45.962 0.262 45.962 0.443 L 45.962 0.443 L 45.962 3.527 L 48.554 0.279 L 48.554 0.279 Q 48.8 0 49.161 0 L 49.161 0 L 53.114 0 L 53.114 0 Q 53.262 0 53.368 0.107 L 53.368 0.107 L 53.368 0.107 Q 53.475 0.213 53.475 0.353 L 53.475 0.353 L 53.475 0.353 Q 53.475 0.492 53.393 0.591 L 53.393 0.591 L 49.505 5.331 L 49.505 5.331 Z " fill="rgb(255,255,255)"/></g></svg>