<?xml version="1.0" encoding="UTF-8" standalone="no"?><!-- Generator: Gravit.io --><svg xmlns="http://www.w3.org/2000/svg" xmlns:xlink="http://www.w3.org/1999/xlink" style="isolation:isolate" viewBox="0 0 128 128" width="128pt" height="128pt"><defs><clipPath id="_clipPath_rBxBVkHpVQAsW0frnVw1c0hbwBOt0fyf"><rect width="128" height="128"/></clipPath></defs><g clip-path="url(#_clipPath_rBxBVkHpVQAsW0frnVw1c0hbwBOt0fyf)"><path d=" M 0 64 C 0 28.676 28.676 0 64.003 0 C 99.324 0 128 28.676 128 64 C 128 99.321 99.324 128 64.003 128 C 28.676 128 0 99.321 0 64 Z  M 48.332 92.56 L 48.332 92.56 L 32.909 92.56 L 32.909 92.56 Q 32.177 92.56 31.642 92.031 L 31.642 92.031 L 31.642 92.031 Q 31.114 91.5 31.114 91.009 L 31.114 91.009 L 31.114 91.009 Q 31.114 90.519 31.196 90.277 L 31.196 90.277 L 48.986 38.132 L 48.986 38.132 Q 49.719 35.44 52.656 35.44 L 52.656 35.44 L 75.344 35.44 L 75.344 35.44 Q 78.281 35.44 79.014 38.132 L 79.014 38.132 L 96.804 90.277 L 96.804 90.277 Q 96.889 90.519 96.889 91.009 L 96.889 91.009 L 96.889 91.009 Q 96.889 91.5 96.358 92.031 L 96.358 92.031 L 96.358 92.031 Q 95.823 92.56 95.091 92.56 L 95.091 92.56 L 79.668 92.56 L 79.668 92.56 Q 77.058 92.56 75.998 89.786 L 75.998 89.786 Q 65.486 56.217 64.003 51.19 Q 62.511 56.346 52.005 89.786 L 52.005 89.786 Q 50.942 92.56 48.332 92.56 L 48.332 92.56 L 48.332 92.56 Z " fill-rule="evenodd" fill="rgb(255,255,255)"/></g></svg>