<svg version="1" xmlns="http://www.w3.org/2000/svg" width="682.667" height="682.667" viewBox="0 0 512.000000 512.000000"><path d="M237 .6c-33.1 3.7-52.7 8.4-76.1 17.9-32 13.1-58.6 30.4-82.9 54.1-22.4 21.9-37.5 42.5-51 69.9C14.4 168 7.4 190 2.8 218c-3.1 19.5-3.1 56.5 0 76 4.6 28 11.6 50 24.2 75.5 24.6 49.8 64.7 90.3 114.2 115.1 26.1 13.1 50.9 20.7 83.3 25.5 11.9 1.8 51.1 1.8 63 0 38.9-5.8 68.9-16.2 100.9-35.1 31.6-18.6 66.1-53 85.9-85.5 36.3-59.7 46.8-131.2 29.2-198.4-4.9-18.4-9.2-29.9-18.5-48.6-12.6-25.5-25.5-43.8-46-64.9-19.1-19.7-40.5-35.8-64-48C337.3 10 303.1 1.3 261 .5c-11.3-.2-22.1-.1-24 .1zm72.6 143.5c1.9 1.1 3.9 3.1 4.6 4.2 2.2 4.2 72.9 212.2 73 215 .1 1.5-.7 3.6-1.7 4.7-1.8 2-2.8 2.1-37.6 1.8l-35.8-.3-2.9-2.8c-1.6-1.6-3.7-4.5-4.6-6.5-1.4-3.2-41.2-130.6-46.3-147.9-1-3.5-2-6.3-2.3-6.3-.3 0-1.6 3.6-2.8 8-4.8 16.7-44.3 142.7-45.8 146.2-.9 2-3 4.9-4.6 6.5l-2.9 2.8-35.8.3c-34.8.3-35.8.2-37.6-1.8-1-1.1-1.8-3.2-1.7-4.7.1-2.3 64.2-191.9 71.4-211.1 1.4-3.7 3-5.9 5.6-7.7l3.7-2.5h50.4c49.3 0 50.4 0 53.7 2.1z"/></svg>