<?xml version="1.0" encoding="UTF-8" standalone="no"?><!-- Generator: Gravit.io --><svg xmlns="http://www.w3.org/2000/svg" xmlns:xlink="http://www.w3.org/1999/xlink" style="isolation:isolate" viewBox="0 0 1275.591 255.118" width="1275.591pt" height="255.118pt"><path d="M 4.252 0 L 1271.339 0 C 1273.685 0 1275.591 1.905 1275.591 4.252 L 1275.591 250.866 C 1275.591 253.213 1273.685 255.118 1271.339 255.118 L 4.252 255.118 C 1.905 255.118 0 253.213 0 250.866 L 0 4.252 C 0 1.905 1.905 0 4.252 0 Z" style="stroke:none;fill:#353535;stroke-miterlimit:10;"/><path d="M 468.436 78.849 L 807.155 78.849 C 808.396 78.849 809.403 79.857 809.403 81.098 L 809.403 174.021 C 809.403 175.261 808.396 176.269 807.155 176.269 L 468.436 176.269 C 467.195 176.269 466.187 175.261 466.187 174.021 L 466.187 81.098 C 466.187 79.857 467.195 78.849 468.436 78.849 Z" style="stroke:none;fill:#000000;stroke-miterlimit:10;"/><path d=" M 596.549 8.8 L 596.549 8.8 L 612.752 8.8 L 612.752 8.8 Q 613.032 8.8 613.236 9.004 L 613.236 9.004 L 613.236 9.004 Q 613.44 9.207 613.44 9.488 L 613.44 9.488 L 613.44 13.36 L 613.44 13.36 Q 613.44 13.64 613.236 13.844 L 613.236 13.844 L 613.236 13.844 Q 613.032 14.048 612.752 14.048 L 612.752 14.048 L 602.74 14.048 L 602.74 15.678 L 611.096 15.678 L 611.096 15.678 Q 611.376 15.678 611.58 15.882 L 611.58 15.882 L 611.58 15.882 Q 611.784 16.086 611.784 16.366 L 611.784 16.366 L 611.784 20.213 L 611.784 20.213 Q 611.784 20.493 611.58 20.697 L 611.58 20.697 L 611.58 20.697 Q 611.376 20.901 611.096 20.901 L 611.096 20.901 L 602.74 20.901 L 602.74 25.945 L 602.74 25.945 Q 602.74 26.226 602.536 26.429 L 602.536 26.429 L 602.536 26.429 Q 602.332 26.633 602.052 26.633 L 602.052 26.633 L 596.549 26.633 L 596.549 26.633 Q 596.269 26.633 596.065 26.429 L 596.065 26.429 L 596.065 26.429 Q 595.861 26.226 595.861 25.945 L 595.861 25.945 L 595.861 9.488 L 595.861 9.488 Q 595.861 9.207 596.065 9.004 L 596.065 9.004 L 596.065 9.004 Q 596.269 8.8 596.549 8.8 Z  M 620.981 26.633 L 620.981 26.633 L 616.166 26.633 L 616.166 26.633 Q 615.937 26.633 615.771 26.468 L 615.771 26.468 L 615.771 26.468 Q 615.605 26.302 615.605 26.149 L 615.605 26.149 L 615.605 26.149 Q 615.605 25.996 615.631 25.92 L 615.631 25.92 L 621.185 9.641 L 621.185 9.641 Q 621.414 8.8 622.331 8.8 L 622.331 8.8 L 629.414 8.8 L 629.414 8.8 Q 630.331 8.8 630.56 9.641 L 630.56 9.641 L 636.114 25.92 L 636.114 25.92 Q 636.139 25.996 636.139 26.149 L 636.139 26.149 L 636.139 26.149 Q 636.139 26.302 635.974 26.468 L 635.974 26.468 L 635.974 26.468 Q 635.808 26.633 635.579 26.633 L 635.579 26.633 L 630.764 26.633 L 630.764 26.633 Q 629.949 26.633 629.617 25.767 L 629.617 25.767 Q 626.336 15.287 625.872 13.717 Q 625.408 15.327 622.127 25.767 L 622.127 25.767 Q 621.796 26.633 620.981 26.633 Z  M 647.069 9.488 L 647.069 21.411 L 655.756 21.411 L 655.756 21.411 Q 656.036 21.411 656.24 21.614 L 656.24 21.614 L 656.24 21.614 Q 656.444 21.818 656.444 22.098 L 656.444 22.098 L 656.444 25.945 L 656.444 25.945 Q 656.444 26.226 656.24 26.429 L 656.24 26.429 L 656.24 26.429 Q 656.036 26.633 655.756 26.633 L 655.756 26.633 L 640.878 26.633 L 640.878 26.633 Q 640.598 26.633 640.394 26.429 L 640.394 26.429 L 640.394 26.429 Q 640.19 26.226 640.19 25.945 L 640.19 25.945 L 640.19 9.488 L 640.19 9.488 Q 640.19 9.207 640.394 9.004 L 640.394 9.004 L 640.394 9.004 Q 640.598 8.8 640.878 8.8 L 640.878 8.8 L 646.381 8.8 L 646.381 8.8 Q 646.661 8.8 646.865 9.004 L 646.865 9.004 L 646.865 9.004 Q 647.069 9.207 647.069 9.488 L 647.069 9.488 Z  M 672.749 17.08 L 679.627 25.742 L 679.627 25.742 Q 679.729 25.894 679.729 26.098 L 679.729 26.098 L 679.729 26.098 Q 679.729 26.302 679.564 26.468 L 679.564 26.468 L 679.564 26.468 Q 679.398 26.633 679.169 26.633 L 679.169 26.633 L 672.596 26.633 L 672.596 26.633 Q 672.01 26.633 671.679 26.226 L 671.679 26.226 L 667.246 20.748 L 667.246 25.945 L 667.246 25.945 Q 667.246 26.226 667.042 26.429 L 667.042 26.429 L 667.042 26.429 Q 666.838 26.633 666.558 26.633 L 666.558 26.633 L 661.31 26.633 L 661.31 26.633 Q 661.03 26.633 660.826 26.429 L 660.826 26.429 L 660.826 26.429 Q 660.622 26.226 660.622 25.945 L 660.622 25.945 L 660.622 9.488 L 660.622 9.488 Q 660.622 9.207 660.826 9.004 L 660.826 9.004 L 660.826 9.004 Q 661.03 8.8 661.31 8.8 L 661.31 8.8 L 666.558 8.8 L 666.558 8.8 Q 666.838 8.8 667.042 9.004 L 667.042 9.004 L 667.042 9.004 Q 667.246 9.207 667.246 9.488 L 667.246 9.488 L 667.246 14.277 L 671.271 9.233 L 671.271 9.233 Q 671.653 8.8 672.214 8.8 L 672.214 8.8 L 678.354 8.8 L 678.354 8.8 Q 678.583 8.8 678.748 8.965 L 678.748 8.965 L 678.748 8.965 Q 678.914 9.131 678.914 9.348 L 678.914 9.348 L 678.914 9.348 Q 678.914 9.564 678.787 9.717 L 678.787 9.717 L 672.749 17.08 Z " fill="rgb(140,140,140)"/><path d=" M 646.035 245.252 L 646.035 245.252 Q 645.835 245.252 645.695 245.112 L 645.695 245.112 L 645.695 245.112 Q 645.555 244.972 645.555 244.772 L 645.555 244.772 L 645.555 234.452 L 642.535 236.772 L 642.535 236.772 Q 642.415 236.872 642.235 236.872 L 642.235 236.872 L 642.235 236.872 Q 641.995 236.872 641.855 236.672 L 641.855 236.672 L 640.995 235.552 L 640.995 235.552 Q 640.895 235.412 640.895 235.272 L 640.895 235.272 L 640.895 235.272 Q 640.895 235.032 641.115 234.872 L 641.115 234.872 L 645.595 231.392 L 645.595 231.392 Q 645.815 231.252 646.095 231.252 L 646.095 231.252 L 647.895 231.252 L 647.895 231.252 Q 648.095 231.252 648.235 231.392 L 648.235 231.392 L 648.235 231.392 Q 648.375 231.532 648.375 231.732 L 648.375 231.732 L 648.375 244.772 L 648.375 244.772 Q 648.375 244.972 648.235 245.112 L 648.235 245.112 L 648.235 245.112 Q 648.095 245.252 647.895 245.252 L 647.895 245.252 L 646.035 245.252 L 646.035 245.252 Z  M 656.355 245.452 L 656.355 245.452 Q 653.675 245.452 652.365 243.972 L 652.365 243.972 L 652.365 243.972 Q 651.055 242.492 650.935 240.092 L 650.935 240.092 L 650.935 240.092 Q 650.915 239.552 650.915 238.252 L 650.915 238.252 L 650.915 238.252 Q 650.915 236.932 650.935 236.372 L 650.935 236.372 L 650.935 236.372 Q 651.035 234.012 652.375 232.532 L 652.375 232.532 L 652.375 232.532 Q 653.715 231.052 656.355 231.052 L 656.355 231.052 L 656.355 231.052 Q 658.995 231.052 660.335 232.532 L 660.335 232.532 L 660.335 232.532 Q 661.675 234.012 661.775 236.372 L 661.775 236.372 L 661.775 236.372 Q 661.815 237.492 661.815 238.252 L 661.815 238.252 L 661.815 238.252 Q 661.815 239.012 661.775 240.092 L 661.775 240.092 L 661.775 240.092 Q 661.655 242.492 660.345 243.972 L 660.345 243.972 L 660.345 243.972 Q 659.035 245.452 656.355 245.452 L 656.355 245.452 L 656.355 245.452 Z  M 656.355 243.112 L 656.355 243.112 Q 657.595 243.112 658.215 242.302 L 658.215 242.302 L 658.215 242.302 Q 658.835 241.492 658.875 239.992 L 658.875 239.992 L 658.875 239.992 Q 658.895 239.412 658.895 238.212 L 658.895 238.212 L 658.895 238.212 Q 658.895 237.012 658.875 236.472 L 658.875 236.472 L 658.875 236.472 Q 658.835 235.012 658.215 234.192 L 658.215 234.192 L 658.215 234.192 Q 657.595 233.372 656.355 233.352 L 656.355 233.352 L 656.355 233.352 Q 655.115 233.372 654.495 234.192 L 654.495 234.192 L 654.495 234.192 Q 653.875 235.012 653.835 236.472 L 653.835 236.472 L 653.835 236.472 Q 653.815 237.012 653.815 238.212 L 653.815 238.212 L 653.815 238.212 Q 653.815 239.412 653.835 239.992 L 653.835 239.992 L 653.835 239.992 Q 653.875 241.492 654.495 242.302 L 654.495 242.302 L 654.495 242.302 Q 655.115 243.112 656.355 243.112 L 656.355 243.112 L 656.355 243.112 Z  M 669.535 245.452 L 669.535 245.452 Q 666.855 245.452 665.545 243.972 L 665.545 243.972 L 665.545 243.972 Q 664.235 242.492 664.115 240.092 L 664.115 240.092 L 664.115 240.092 Q 664.095 239.552 664.095 238.252 L 664.095 238.252 L 664.095 238.252 Q 664.095 236.932 664.115 236.372 L 664.115 236.372 L 664.115 236.372 Q 664.215 234.012 665.555 232.532 L 665.555 232.532 L 665.555 232.532 Q 666.895 231.052 669.535 231.052 L 669.535 231.052 L 669.535 231.052 Q 672.175 231.052 673.515 232.532 L 673.515 232.532 L 673.515 232.532 Q 674.855 234.012 674.955 236.372 L 674.955 236.372 L 674.955 236.372 Q 674.995 237.492 674.995 238.252 L 674.995 238.252 L 674.995 238.252 Q 674.995 239.012 674.955 240.092 L 674.955 240.092 L 674.955 240.092 Q 674.835 242.492 673.525 243.972 L 673.525 243.972 L 673.525 243.972 Q 672.215 245.452 669.535 245.452 L 669.535 245.452 L 669.535 245.452 Z  M 669.535 243.112 L 669.535 243.112 Q 670.775 243.112 671.395 242.302 L 671.395 242.302 L 671.395 242.302 Q 672.015 241.492 672.055 239.992 L 672.055 239.992 L 672.055 239.992 Q 672.075 239.412 672.075 238.212 L 672.075 238.212 L 672.075 238.212 Q 672.075 237.012 672.055 236.472 L 672.055 236.472 L 672.055 236.472 Q 672.015 235.012 671.395 234.192 L 671.395 234.192 L 671.395 234.192 Q 670.775 233.372 669.535 233.352 L 669.535 233.352 L 669.535 233.352 Q 668.295 233.372 667.675 234.192 L 667.675 234.192 L 667.675 234.192 Q 667.055 235.012 667.015 236.472 L 667.015 236.472 L 667.015 236.472 Q 666.995 237.012 666.995 238.212 L 666.995 238.212 L 666.995 238.212 Q 666.995 239.412 667.015 239.992 L 667.015 239.992 L 667.015 239.992 Q 667.055 241.492 667.675 242.302 L 667.675 242.302 L 667.675 242.302 Q 668.295 243.112 669.535 243.112 L 669.535 243.112 L 669.535 243.112 Z  M 598.835 245.252 L 598.835 245.252 Q 598.635 245.252 598.495 245.112 L 598.495 245.112 L 598.495 245.112 Q 598.355 244.972 598.355 244.772 L 598.355 244.772 L 598.355 231.752 L 598.355 231.752 Q 598.355 231.532 598.485 231.392 L 598.485 231.392 L 598.485 231.392 Q 598.615 231.252 598.835 231.252 L 598.835 231.252 L 604.195 231.252 L 604.195 231.252 Q 606.615 231.252 607.995 232.392 L 607.995 232.392 L 607.995 232.392 Q 609.375 233.532 609.375 235.712 L 609.375 235.712 L 609.375 235.712 Q 609.375 237.872 607.995 238.982 L 607.995 238.982 L 607.995 238.982 Q 606.615 240.092 604.195 240.092 L 604.195 240.092 L 601.255 240.092 L 601.255 244.772 L 601.255 244.772 Q 601.255 244.992 601.115 245.122 L 601.115 245.122 L 601.115 245.122 Q 600.975 245.252 600.755 245.252 L 600.755 245.252 L 598.835 245.252 L 598.835 245.252 Z  M 601.215 237.852 L 604.095 237.852 L 604.095 237.852 Q 605.255 237.852 605.865 237.302 L 605.865 237.302 L 605.865 237.302 Q 606.475 236.752 606.475 235.692 L 606.475 235.692 L 606.475 235.692 Q 606.475 234.652 605.885 234.072 L 605.885 234.072 L 605.885 234.072 Q 605.295 233.492 604.095 233.492 L 604.095 233.492 L 601.215 233.492 L 601.215 237.852 L 601.215 237.852 Z  M 612.035 245.252 L 612.035 245.252 Q 611.835 245.252 611.695 245.112 L 611.695 245.112 L 611.695 245.112 Q 611.555 244.972 611.555 244.772 L 611.555 244.772 L 611.555 231.752 L 611.555 231.752 Q 611.555 231.532 611.685 231.392 L 611.685 231.392 L 611.685 231.392 Q 611.815 231.252 612.035 231.252 L 612.035 231.252 L 617.215 231.252 L 617.215 231.252 Q 619.675 231.252 621.065 232.392 L 621.065 232.392 L 621.065 232.392 Q 622.455 233.532 622.455 235.632 L 622.455 235.632 L 622.455 235.632 Q 622.455 237.092 621.755 238.082 L 621.755 238.082 L 621.755 238.082 Q 621.055 239.072 619.795 239.512 L 619.795 239.512 L 622.695 244.612 L 622.695 244.612 Q 622.755 244.732 622.755 244.832 L 622.755 244.832 L 622.755 244.832 Q 622.755 245.012 622.625 245.132 L 622.625 245.132 L 622.625 245.132 Q 622.495 245.252 622.335 245.252 L 622.335 245.252 L 620.495 245.252 L 620.495 245.252 Q 620.175 245.252 619.995 245.102 L 619.995 245.102 L 619.995 245.102 Q 619.815 244.952 619.675 244.712 L 619.675 244.712 L 617.115 239.972 L 614.375 239.972 L 614.375 244.772 L 614.375 244.772 Q 614.375 244.972 614.235 245.112 L 614.235 245.112 L 614.235 245.112 Q 614.095 245.252 613.875 245.252 L 613.875 245.252 L 612.035 245.252 L 612.035 245.252 Z  M 614.375 237.692 L 617.155 237.692 L 617.155 237.692 Q 618.355 237.692 618.955 237.162 L 618.955 237.162 L 618.955 237.162 Q 619.555 236.632 619.555 235.612 L 619.555 235.612 L 619.555 235.612 Q 619.555 234.592 618.955 234.042 L 618.955 234.042 L 618.955 234.042 Q 618.355 233.492 617.155 233.492 L 617.155 233.492 L 614.375 233.492 L 614.375 237.692 L 614.375 237.692 Z  M 625.515 245.252 L 625.515 245.252 Q 625.315 245.252 625.175 245.112 L 625.175 245.112 L 625.175 245.112 Q 625.035 244.972 625.035 244.772 L 625.035 244.772 L 625.035 231.752 L 625.035 231.752 Q 625.035 231.532 625.165 231.392 L 625.165 231.392 L 625.165 231.392 Q 625.295 231.252 625.515 231.252 L 625.515 231.252 L 634.335 231.252 L 634.335 231.252 Q 634.555 231.252 634.695 231.392 L 634.695 231.392 L 634.695 231.392 Q 634.835 231.532 634.835 231.752 L 634.835 231.752 L 634.835 233.092 L 634.835 233.092 Q 634.835 233.312 634.695 233.442 L 634.695 233.442 L 634.695 233.442 Q 634.555 233.572 634.335 233.572 L 634.335 233.572 L 627.775 233.572 L 627.775 237.072 L 633.895 237.072 L 633.895 237.072 Q 634.115 237.072 634.255 237.212 L 634.255 237.212 L 634.255 237.212 Q 634.395 237.352 634.395 237.572 L 634.395 237.572 L 634.395 238.832 L 634.395 238.832 Q 634.395 239.052 634.255 239.182 L 634.255 239.182 L 634.255 239.182 Q 634.115 239.312 633.895 239.312 L 633.895 239.312 L 627.775 239.312 L 627.775 242.932 L 634.495 242.932 L 634.495 242.932 Q 634.715 242.932 634.855 243.062 L 634.855 243.062 L 634.855 243.062 Q 634.995 243.192 634.995 243.412 L 634.995 243.412 L 634.995 244.772 L 634.995 244.772 Q 634.995 244.992 634.855 245.122 L 634.855 245.122 L 634.855 245.122 Q 634.715 245.252 634.495 245.252 L 634.495 245.252 L 625.515 245.252 L 625.515 245.252 Z " fill="rgb(140,140,140)"/><path d=" M 501.065 142.625 L 493.82 142.625 L 493.82 111.125 L 501.245 111.125 L 501.245 111.125 Q 504.665 111.125 507.253 112.475 L 507.253 112.475 L 507.253 112.475 Q 509.84 113.825 511.303 116.12 L 511.303 116.12 L 511.303 116.12 Q 512.765 118.415 513.463 121.115 L 513.463 121.115 L 513.463 121.115 Q 514.16 123.815 514.16 126.875 L 514.16 126.875 L 514.16 126.875 Q 514.16 129.8 513.508 132.432 L 513.508 132.432 L 513.508 132.432 Q 512.855 135.065 511.438 137.427 L 511.438 137.427 L 511.438 137.427 Q 510.02 139.79 507.343 141.207 L 507.343 141.207 L 507.343 141.207 Q 504.665 142.625 501.065 142.625 L 501.065 142.625 L 501.065 142.625 Z  M 497.735 114.68 L 497.735 139.07 L 501.2 139.07 L 501.2 139.07 Q 503.675 139.07 505.475 138.012 L 505.475 138.012 L 505.475 138.012 Q 507.275 136.955 508.243 135.11 L 508.243 135.11 L 508.243 135.11 Q 509.21 133.265 509.66 131.24 L 509.66 131.24 L 509.66 131.24 Q 510.11 129.215 510.11 126.875 L 510.11 126.875 L 510.11 126.875 Q 510.11 121.745 508.018 118.212 L 508.018 118.212 L 508.018 118.212 Q 505.925 114.68 501.695 114.68 L 501.695 114.68 L 497.735 114.68 L 497.735 114.68 Z  M 543.185 142.625 L 539.135 142.625 L 536.705 134.885 L 525.59 134.885 L 523.205 142.625 L 519.065 142.625 L 529.46 111.125 L 532.745 111.125 L 543.185 142.625 L 543.185 142.625 Z  M 530.27 119.9 L 526.67 131.42 L 535.58 131.42 L 531.935 119.9 L 531.935 119.9 Q 531.395 118.145 531.08 116.84 L 531.08 116.84 L 531.08 116.84 Q 530.9 117.92 530.27 119.9 L 530.27 119.9 L 530.27 119.9 Z  M 559.97 143.165 L 559.97 143.165 L 559.97 143.165 Q 557.495 143.165 555.448 142.242 L 555.448 142.242 L 555.448 142.242 Q 553.4 141.32 552.073 139.767 L 552.073 139.767 L 552.073 139.767 Q 550.745 138.215 549.845 136.1 L 549.845 136.1 L 549.845 136.1 Q 548.945 133.985 548.54 131.69 L 548.54 131.69 L 548.54 131.69 Q 548.135 129.395 548.135 126.875 L 548.135 126.875 L 548.135 126.875 Q 548.135 122.555 549.305 118.977 L 549.305 118.977 L 549.305 118.977 Q 550.475 115.4 553.22 112.992 L 553.22 112.992 L 553.22 112.992 Q 555.965 110.585 559.97 110.585 L 559.97 110.585 L 559.97 110.585 Q 565.955 110.585 568.565 116.165 L 568.565 116.165 L 565.145 118.01 L 565.145 118.01 Q 564.155 116.165 562.985 115.175 L 562.985 115.175 L 562.985 115.175 Q 561.815 114.185 559.97 114.185 L 559.97 114.185 L 559.97 114.185 Q 557.9 114.185 556.325 115.332 L 556.325 115.332 L 556.325 115.332 Q 554.75 116.48 553.873 118.37 L 553.873 118.37 L 553.873 118.37 Q 552.995 120.26 552.568 122.397 L 552.568 122.397 L 552.568 122.397 Q 552.14 124.535 552.14 126.875 L 552.14 126.875 L 552.14 126.875 Q 552.14 130.25 552.928 133.017 L 552.928 133.017 L 552.928 133.017 Q 553.715 135.785 555.538 137.675 L 555.538 137.675 L 555.538 137.675 Q 557.36 139.565 559.97 139.565 L 559.97 139.565 L 559.97 139.565 Q 563.57 139.565 565.46 135.56 L 565.46 135.56 L 568.925 136.865 L 568.925 136.865 Q 567.755 139.655 565.528 141.41 L 565.528 141.41 L 565.528 141.41 Q 563.3 143.165 559.97 143.165 Z " fill="rgb(255,255,255)"/><path d=" M 724.48 131.105 L 703.33 131.105 L 703.33 127.37 L 724.48 127.37 L 724.48 131.105 L 724.48 131.105 Z  M 736.135 143.165 L 736.135 143.165 L 736.135 139.88 L 736.135 139.88 Q 740.41 138.845 743.65 135.492 L 743.65 135.492 L 743.65 135.492 Q 746.89 132.14 747.61 127.91 L 747.61 127.91 L 747.61 127.91 Q 745.36 130.655 740.68 130.655 L 740.68 130.655 L 740.68 130.655 Q 736.63 130.655 733.863 127.842 L 733.863 127.842 L 733.863 127.842 Q 731.095 125.03 731.095 120.935 L 731.095 120.935 L 731.095 120.935 Q 731.095 116.48 734.155 113.532 L 734.155 113.532 L 734.155 113.532 Q 737.215 110.585 741.76 110.585 L 741.76 110.585 L 741.76 110.585 Q 746.845 110.585 749.5 113.96 L 749.5 113.96 L 749.5 113.96 Q 752.155 117.335 752.155 122.78 L 752.155 122.78 L 752.155 122.78 Q 752.155 127.685 750.243 131.982 L 750.243 131.982 L 750.243 131.982 Q 748.33 136.28 744.64 139.272 L 744.64 139.272 L 744.64 139.272 Q 740.95 142.265 736.135 143.165 Z  M 741.58 127.325 L 741.58 127.325 L 741.58 127.325 Q 744.55 127.325 746.44 125.457 L 746.44 125.457 L 746.44 125.457 Q 748.33 123.59 748.33 120.665 L 748.33 120.665 L 748.33 120.665 Q 748.33 117.875 746.395 116.007 L 746.395 116.007 L 746.395 116.007 Q 744.46 114.14 741.58 114.14 L 741.58 114.14 L 741.58 114.14 Q 738.565 114.14 736.72 116.007 L 736.72 116.007 L 736.72 116.007 Q 734.875 117.875 734.875 120.665 L 734.875 120.665 L 734.875 120.665 Q 734.875 123.635 736.698 125.48 L 736.698 125.48 L 736.698 125.48 Q 738.52 127.325 741.58 127.325 Z  M 769.345 143.165 L 769.345 143.165 L 769.345 143.165 Q 766.33 143.165 764.103 141.747 L 764.103 141.747 L 764.103 141.747 Q 761.875 140.33 760.683 137.922 L 760.683 137.922 L 760.683 137.922 Q 759.49 135.515 758.928 132.77 L 758.928 132.77 L 758.928 132.77 Q 758.365 130.025 758.365 126.875 L 758.365 126.875 L 758.365 126.875 Q 758.365 124.625 758.658 122.51 L 758.658 122.51 L 758.658 122.51 Q 758.95 120.395 759.715 118.167 L 759.715 118.167 L 759.715 118.167 Q 760.48 115.94 761.673 114.32 L 761.673 114.32 L 761.673 114.32 Q 762.865 112.7 764.845 111.642 L 764.845 111.642 L 764.845 111.642 Q 766.825 110.585 769.345 110.585 L 769.345 110.585 L 769.345 110.585 Q 772.36 110.585 774.61 112.002 L 774.61 112.002 L 774.61 112.002 Q 776.86 113.42 778.053 115.85 L 778.053 115.85 L 778.053 115.85 Q 779.245 118.28 779.808 121.025 L 779.808 121.025 L 779.808 121.025 Q 780.37 123.77 780.37 126.875 L 780.37 126.875 L 780.37 126.875 Q 780.37 129.755 779.853 132.387 L 779.853 132.387 L 779.853 132.387 Q 779.335 135.02 778.165 137.562 L 778.165 137.562 L 778.165 137.562 Q 776.995 140.105 774.723 141.635 L 774.723 141.635 L 774.723 141.635 Q 772.45 143.165 769.345 143.165 Z  M 769.345 139.61 L 769.345 139.61 L 769.345 139.61 Q 771.415 139.61 772.878 138.462 L 772.878 138.462 L 772.878 138.462 Q 774.34 137.315 775.038 135.335 L 775.038 135.335 L 775.038 135.335 Q 775.735 133.355 776.028 131.307 L 776.028 131.307 L 776.028 131.307 Q 776.32 129.26 776.32 126.875 L 776.32 126.875 L 776.32 126.875 Q 776.32 124.355 775.983 122.24 L 775.983 122.24 L 775.983 122.24 Q 775.645 120.125 774.903 118.212 L 774.903 118.212 L 774.903 118.212 Q 774.16 116.3 772.743 115.22 L 772.743 115.22 L 772.743 115.22 Q 771.325 114.14 769.345 114.14 L 769.345 114.14 L 769.345 114.14 Q 767.275 114.14 765.813 115.287 L 765.813 115.287 L 765.813 115.287 Q 764.35 116.435 763.63 118.437 L 763.63 118.437 L 763.63 118.437 Q 762.91 120.44 762.618 122.465 L 762.618 122.465 L 762.618 122.465 Q 762.325 124.49 762.325 126.875 L 762.325 126.875 L 762.325 126.875 Q 762.325 129.395 762.663 131.532 L 762.663 131.532 L 762.663 131.532 Q 763 133.67 763.743 135.56 L 763.743 135.56 L 763.743 135.56 Q 764.485 137.45 765.903 138.53 L 765.903 138.53 L 765.903 138.53 Q 767.32 139.61 769.345 139.61 Z  M 771.438 128.967 L 771.438 128.967 L 771.438 128.967 Q 770.56 129.845 769.345 129.845 L 769.345 129.845 L 769.345 129.845 Q 768.13 129.845 767.275 128.967 L 767.275 128.967 L 767.275 128.967 Q 766.42 128.09 766.42 126.92 L 766.42 126.92 L 766.42 126.92 Q 766.42 125.705 767.275 124.827 L 767.275 124.827 L 767.275 124.827 Q 768.13 123.95 769.345 123.95 L 769.345 123.95 L 769.345 123.95 Q 770.56 123.95 771.438 124.827 L 771.438 124.827 L 771.438 124.827 Q 772.315 125.705 772.315 126.92 L 772.315 126.92 L 772.315 126.92 Q 772.315 128.09 771.438 128.967 Z " fill="rgb(255,255,255)"/><linearGradient id="_lgradient_5" x1="0.023382797032236453" y1="0.016193410747092688" x2="0.9252519559107414" y2="0.9483580988540344" gradientTransform="matrix(59.528,0,0,59.528,58.829,97.795)" gradientUnits="userSpaceOnUse"><stop offset="0%" stop-opacity="1" style="stop-color:rgb(0,0,0)"/><stop offset="0%" stop-opacity="1" style="stop-color:rgb(0,0,0)"/><stop offset="100%" stop-opacity="1" style="stop-color:rgb(123,123,123)"/></linearGradient><circle vector-effect="non-scaling-stroke" cx="88.59264790362225" cy="127.55905511811025" r="29.763779527559052" fill="url(#_lgradient_5)"/><g><path d=" M 88.593 100.63 C 73.729 100.63 61.661 112.696 61.661 127.559 C 61.661 142.422 73.729 154.488 88.593 154.488 C 103.456 154.488 115.524 142.422 115.524 127.559 C 115.524 112.696 103.456 100.63 88.593 100.63 Z " fill="rgb(34,34,34)"/><ellipse vector-effect="non-scaling-stroke" cx="88.59264790362258" cy="127.55905511811022" rx="23.29048270764146" ry="23.292439126015033" fill="rgb(0,0,0)"/><path d=" M 67.929 127.559 C 67.929 116.154 77.188 106.894 88.593 106.894 C 99.997 106.894 109.256 116.154 109.256 127.559 C 109.256 138.964 99.997 148.224 88.593 148.224 C 77.188 148.224 67.929 138.964 67.929 127.559 Z  M 69.805 127.559 C 69.805 117.189 78.224 108.77 88.593 108.77 C 98.962 108.77 107.38 117.189 107.38 127.559 C 107.38 137.929 98.962 146.348 88.593 146.348 C 78.224 146.348 69.805 137.929 69.805 127.559 Z " fill-rule="evenodd" fill="rgb(122,162,255)"/></g><path d=" M 88.593 100.63 C 73.729 100.63 61.661 112.696 61.661 127.559 C 61.661 142.422 73.729 154.488 88.593 154.488 C 103.456 154.488 115.524 142.422 115.524 127.559 C 115.524 112.696 103.456 100.63 88.593 100.63 Z " fill="rgb(34,34,34)"/><g><ellipse vector-effect="non-scaling-stroke" cx="88.59264790362225" cy="127.55905511811025" rx="26.263124011250312" ry="26.26533013376863" fill="rgb(0,0,0)"/><path d=" M 65.292 127.559 C 65.292 114.698 75.733 104.256 88.593 104.256 C 101.453 104.256 111.893 114.698 111.893 127.559 C 111.893 140.42 101.453 150.862 88.593 150.862 C 75.733 150.862 65.292 140.42 65.292 127.559 Z  M 67.407 127.559 C 67.407 115.865 76.9 106.372 88.593 106.372 C 100.285 106.372 109.778 115.865 109.778 127.559 C 109.778 139.253 100.285 148.746 88.593 148.746 C 76.9 148.746 67.407 139.253 67.407 127.559 Z " fill-rule="evenodd" fill="rgb(122,162,255)"/></g><g><g><path d=" M 1094.062 127.559 C 1094.062 103.31 1113.75 83.622 1137.999 83.622 C 1162.249 83.622 1181.936 103.31 1181.936 127.559 C 1181.936 151.809 1162.249 171.496 1137.999 171.496 C 1113.75 171.496 1094.062 151.809 1094.062 127.559 Z  M 1102.85 127.559 C 1102.85 108.159 1118.6 92.409 1137.999 92.409 C 1157.399 92.409 1173.149 108.159 1173.149 127.559 C 1173.149 146.959 1157.399 162.709 1137.999 162.709 C 1118.6 162.709 1102.85 146.959 1102.85 127.559 Z " fill-rule="evenodd" fill="rgb(0,0,0)"/></g><linearGradient id="_lgradient_6" x1="0.25019011084748927" y1="0.06991080913598069" x2="0.8526465482294514" y2="0.8641526867917821" gradientTransform="matrix(85.039,0,0,85.039,1095.48,85.039)" gradientUnits="userSpaceOnUse"><stop offset="0%" stop-opacity="1" style="stop-color:rgb(42,42,42)"/><stop offset="100%" stop-opacity="1" style="stop-color:rgb(8,8,8)"/></linearGradient><circle vector-effect="non-scaling-stroke" cx="1137.999478077325" cy="127.55905511811025" r="42.51968503936996" fill="url(#_lgradient_6)"/></g><g><g><path d=" M 992.646 127.559 C 992.646 113.479 1004.077 102.047 1018.158 102.047 C 1032.238 102.047 1043.669 113.479 1043.669 127.559 C 1043.669 141.639 1032.238 153.071 1018.158 153.071 C 1004.077 153.071 992.646 141.639 992.646 127.559 Z  M 997.748 127.559 C 997.748 116.295 1006.893 107.15 1018.158 107.15 C 1029.422 107.15 1038.567 116.295 1038.567 127.559 C 1038.567 138.823 1029.422 147.969 1018.158 147.969 C 1006.893 147.969 997.748 138.823 997.748 127.559 Z " fill-rule="evenodd" fill="rgb(0,0,0)"/></g><linearGradient id="_lgradient_7" x1="0.25019011084748927" y1="0.06991080913598069" x2="0.8526465482294514" y2="0.8641526867917821" gradientTransform="matrix(48.189,0,0,48.189,994.063,103.465)" gradientUnits="userSpaceOnUse"><stop offset="0%" stop-opacity="1" style="stop-color:rgb(42,42,42)"/><stop offset="100%" stop-opacity="1" style="stop-color:rgb(8,8,8)"/></linearGradient><circle vector-effect="non-scaling-stroke" cx="1018.1576145602651" cy="127.55905511811024" r="24.094488188976413" fill="url(#_lgradient_7)"/></g><defs><linearGradient id="_lgradient_8" x1="0" y1="0.5" x2="1" y2="1"><stop offset="16.956521739130434%" style="stop-color:rgba(0,0,0,0.07)"/><stop offset="100%" style="stop-color:rgba(0,0,0,0.29)"/></linearGradient></defs><path d="M 468.623 78.849 L 806.968 78.849 C 808.312 78.849 809.403 79.941 809.403 81.285 L 809.403 173.833 C 809.403 175.177 808.312 176.269 806.968 176.269 L 468.623 176.269 C 467.279 176.269 466.187 175.177 466.187 173.833 L 466.187 81.285 C 466.187 79.941 467.279 78.849 468.623 78.849 Z" style="stroke:none;fill:url(#_lgradient_8);stroke-miterlimit:10;"/><clipPath id="_clipPath_FXgXV3GoIHM5jkljL4RyiJhNWM8HBRKn"><path d="M 468.623 78.849 L 806.968 78.849 C 808.312 78.849 809.403 79.941 809.403 81.285 L 809.403 173.833 C 809.403 175.177 808.312 176.269 806.968 176.269 L 468.623 176.269 C 467.279 176.269 466.187 175.177 466.187 173.833 L 466.187 81.285 C 466.187 79.941 467.279 78.849 468.623 78.849 Z" style="stroke:none;fill:url(#_lgradient_8);stroke-miterlimit:10;"/></clipPath><g clip-path="url(#_clipPath_FXgXV3GoIHM5jkljL4RyiJhNWM8HBRKn)"><linearGradient id="_lgradient_9" x1="-1.1102230246251565e-16" y1="5.551115123125783e-16" x2="1.0004690279799453" y2="1.642327141637797" gradientTransform="matrix(343.216,0,0,58.346,466.187,78.849)" gradientUnits="userSpaceOnUse"><stop offset="0%" stop-opacity="0.46" style="stop-color:rgb(255,255,255)"/><stop offset="62.60869565217392%" stop-opacity="0.11" style="stop-color:rgb(255,255,255)"/></linearGradient><path d=" M 466.187 78.849 L 809.403 78.849 L 809.403 98.365 C 687.231 129.563 572.839 141.967 466.187 135.558 L 466.187 78.849 Z " fill="url(#_lgradient_9)"/></g></svg>