<?xml version="1.0" encoding="UTF-8" standalone="no"?><!-- Generator: Gravit.io --><svg xmlns="http://www.w3.org/2000/svg" xmlns:xlink="http://www.w3.org/1999/xlink" style="isolation:isolate" viewBox="0 0 54 62.107" width="54pt" height="62.107pt"><defs><clipPath id="_clipPath_YZ7I6CPPlozM5WWGdpG6sLyjKXTWKKp1"><rect width="54" height="62.107"/></clipPath></defs><g clip-path="url(#_clipPath_YZ7I6CPPlozM5WWGdpG6sLyjKXTWKKp1)"><path d=" M 0.443 50.625 L 0.443 50.625 L 10.875 50.625 L 10.875 50.625 Q 11.056 50.625 11.187 50.756 L 11.187 50.756 L 11.187 50.756 Q 11.318 50.887 11.318 51.068 L 11.318 51.068 L 11.318 53.561 L 11.318 53.561 Q 11.318 53.742 11.187 53.873 L 11.187 53.873 L 11.187 53.873 Q 11.056 54.004 10.875 54.004 L 10.875 54.004 L 4.429 54.004 L 4.429 55.054 L 9.809 55.054 L 9.809 55.054 Q 9.99 55.054 10.121 55.185 L 10.121 55.185 L 10.121 55.185 Q 10.252 55.316 10.252 55.497 L 10.252 55.497 L 10.252 57.974 L 10.252 57.974 Q 10.252 58.154 10.121 58.285 L 10.121 58.285 L 10.121 58.285 Q 9.99 58.417 9.809 58.417 L 9.809 58.417 L 4.429 58.417 L 4.429 61.664 L 4.429 61.664 Q 4.429 61.845 4.298 61.976 L 4.298 61.976 L 4.298 61.976 Q 4.166 62.107 3.986 62.107 L 3.986 62.107 L 0.443 62.107 L 0.443 62.107 Q 0.262 62.107 0.131 61.976 L 0.131 61.976 L 0.131 61.976 Q 0 61.845 0 61.664 L 0 61.664 L 0 51.068 L 0 51.068 Q 0 50.887 0.131 50.756 L 0.131 50.756 L 0.131 50.756 Q 0.262 50.625 0.443 50.625 Z  M 16.174 62.107 L 16.174 62.107 L 13.074 62.107 L 13.074 62.107 Q 12.926 62.107 12.819 62.001 L 12.819 62.001 L 12.819 62.001 Q 12.713 61.894 12.713 61.796 L 12.713 61.796 L 12.713 61.796 Q 12.713 61.697 12.729 61.648 L 12.729 61.648 L 16.305 51.166 L 16.305 51.166 Q 16.453 50.625 17.043 50.625 L 17.043 50.625 L 21.603 50.625 L 21.603 50.625 Q 22.194 50.625 22.341 51.166 L 22.341 51.166 L 25.917 61.648 L 25.917 61.648 Q 25.934 61.697 25.934 61.796 L 25.934 61.796 L 25.934 61.796 Q 25.934 61.894 25.827 62.001 L 25.827 62.001 L 25.827 62.001 Q 25.721 62.107 25.573 62.107 L 25.573 62.107 L 22.473 62.107 L 22.473 62.107 Q 21.948 62.107 21.735 61.55 L 21.735 61.55 Q 19.622 54.802 19.323 53.791 Q 19.024 54.828 16.912 61.55 L 16.912 61.55 Q 16.699 62.107 16.174 62.107 Z  M 32.971 51.068 L 32.971 58.745 L 38.564 58.745 L 38.564 58.745 Q 38.745 58.745 38.876 58.876 L 38.876 58.876 L 38.876 58.876 Q 39.007 59.007 39.007 59.188 L 39.007 59.188 L 39.007 61.664 L 39.007 61.664 Q 39.007 61.845 38.876 61.976 L 38.876 61.976 L 38.876 61.976 Q 38.745 62.107 38.564 62.107 L 38.564 62.107 L 28.985 62.107 L 28.985 62.107 Q 28.804 62.107 28.673 61.976 L 28.673 61.976 L 28.673 61.976 Q 28.542 61.845 28.542 61.664 L 28.542 61.664 L 28.542 51.068 L 28.542 51.068 Q 28.542 50.887 28.673 50.756 L 28.673 50.756 L 28.673 50.756 Q 28.804 50.625 28.985 50.625 L 28.985 50.625 L 32.528 50.625 L 32.528 50.625 Q 32.708 50.625 32.84 50.756 L 32.84 50.756 L 32.84 50.756 Q 32.971 50.887 32.971 51.068 L 32.971 51.068 Z  M 49.505 55.956 L 53.934 61.533 L 53.934 61.533 Q 54 61.632 54 61.763 L 54 61.763 L 54 61.763 Q 54 61.894 53.893 62.001 L 53.893 62.001 L 53.893 62.001 Q 53.787 62.107 53.639 62.107 L 53.639 62.107 L 49.407 62.107 L 49.407 62.107 Q 49.03 62.107 48.817 61.845 L 48.817 61.845 L 45.962 58.318 L 45.962 61.664 L 45.962 61.664 Q 45.962 61.845 45.831 61.976 L 45.831 61.976 L 45.831 61.976 Q 45.7 62.107 45.519 62.107 L 45.519 62.107 L 42.14 62.107 L 42.14 62.107 Q 41.96 62.107 41.829 61.976 L 41.829 61.976 L 41.829 61.976 Q 41.697 61.845 41.697 61.664 L 41.697 61.664 L 41.697 51.068 L 41.697 51.068 Q 41.697 50.887 41.829 50.756 L 41.829 50.756 L 41.829 50.756 Q 41.96 50.625 42.14 50.625 L 42.14 50.625 L 45.519 50.625 L 45.519 50.625 Q 45.7 50.625 45.831 50.756 L 45.831 50.756 L 45.831 50.756 Q 45.962 50.887 45.962 51.068 L 45.962 51.068 L 45.962 54.152 L 48.554 50.904 L 48.554 50.904 Q 48.8 50.625 49.161 50.625 L 49.161 50.625 L 53.114 50.625 L 53.114 50.625 Q 53.262 50.625 53.368 50.732 L 53.368 50.732 L 53.368 50.732 Q 53.475 50.838 53.475 50.978 L 53.475 50.978 L 53.475 50.978 Q 53.475 51.117 53.393 51.216 L 53.393 51.216 L 49.505 55.956 Z " fill="rgb(250,255,255)"/><path d=" M 5.077 21.923 C 5.077 9.823 14.9 0 27.001 0 C 39.1 0 48.923 9.823 48.923 21.923 C 48.923 34.022 39.1 43.846 27.001 43.846 C 14.9 43.846 5.077 34.022 5.077 21.923 Z  M 21.633 31.706 L 21.633 31.706 L 16.35 31.706 L 16.35 31.706 Q 16.099 31.706 15.916 31.525 L 15.916 31.525 L 15.916 31.525 Q 15.735 31.343 15.735 31.175 L 15.735 31.175 L 15.735 31.175 Q 15.735 31.007 15.763 30.924 L 15.763 30.924 L 21.857 13.062 L 21.857 13.062 Q 22.108 12.14 23.114 12.14 L 23.114 12.14 L 30.886 12.14 L 30.886 12.14 Q 31.892 12.14 32.143 13.062 L 32.143 13.062 L 38.237 30.924 L 38.237 30.924 Q 38.266 31.007 38.266 31.175 L 38.266 31.175 L 38.266 31.175 Q 38.266 31.343 38.084 31.525 L 38.084 31.525 L 38.084 31.525 Q 37.901 31.706 37.65 31.706 L 37.65 31.706 L 32.367 31.706 L 32.367 31.706 Q 31.473 31.706 31.11 30.756 L 31.11 30.756 Q 27.509 19.257 27.001 17.535 Q 26.49 19.301 22.891 30.756 L 22.891 30.756 Q 22.527 31.706 21.633 31.706 L 21.633 31.706 Z " fill-rule="evenodd" fill="rgb(250,255,255)"/></g></svg>